<?xml version="1.0" encoding="iso-8859-1"?>
<!-- Generator: Adobe Illustrator 18.1.1, SVG Export Plug-In . SVG Version: 6.00 Build 0)  -->
<svg version="1.1" id="Capa_1" xmlns="http://www.w3.org/2000/svg" xmlns:xlink="http://www.w3.org/1999/xlink" x="0px" y="0px"
	 viewBox="0 0 478.165 478.165" style="fill:white;" xml:space="preserve">
<g>
	<path id="Facebook_3_" d="M175.706,92.624c0,12.054,0,65.807,0,65.807h-48.235v80.531h48.255v239.202h99.04V238.983h66.505
		c0,0,6.176-38.632,9.165-80.77c-8.687,0-75.371,0-75.371,0s0-46.86,0-55.049c0-8.268,10.838-19.366,21.557-19.366
		c10.679,0,33.153,0,54.072,0c0-10.938,0-48.833,0-83.798c-27.893,0-59.452,0-73.438,0C173.235,0,175.706,80.631,175.706,92.624z"/>
</g>
</svg>
