<?xml version="1.0" encoding="iso-8859-1"?>
<!-- Generator: Adobe Illustrator 18.1.1, SVG Export Plug-In . SVG Version: 6.00 Build 0)  -->
<svg version="1.1" id="Capa_1" xmlns="http://www.w3.org/2000/svg" xmlns:xlink="http://www.w3.org/1999/xlink" x="0px" y="0px"
	 viewBox="0 0 478.165 478.165" style="fill:white;" xml:space="preserve">
<g>
	<path id="SoundCloud_2_" d="M0,287.128c0,16.038,7.292,30.443,18.927,40.265v-80.77C7.292,256.406,0,270.89,0,287.128
		 M39.01,236.084v101.969c4.682,1.335,9.782,1.953,14.923,1.953h5.16V234.211c-1.694-0.08-3.507-0.199-5.32-0.199
		C48.613,234.032,43.692,234.709,39.01,236.084 M83.34,242.659c-1.395-0.817-2.769-1.654-4.204-2.371v99.717h20.083V206.577
		C91.11,216.937,85.512,229.27,83.34,242.659 M119.123,187.789v152.216h20.043V177.927
		C132.113,180.318,125.359,183.725,119.123,187.789 M159.269,173.743v166.262h20.083V174.401c-4.164-0.657-8.268-0.936-12.632-0.936
		C164.17,173.464,161.739,173.544,159.269,173.743 M210.412,185.578c-6.555-3.945-13.568-6.973-21.039-9.065v163.473h30.085V173.444
		C216.17,177.25,213.142,181.254,210.412,185.578 M229.499,163.403v176.602h190.389v-0.139c40.126-2.67,58.276-27.455,58.276-57.878
		c0-32.137-24.287-58.077-56.922-58.077c-8.388,0-15.082,1.813-22.494,4.881c-5.16-50.905-48.474-90.632-101.67-90.632
		C271.199,138.18,247.49,147.603,229.499,163.403"/>
</g>
</svg>
