<?xml version="1.0" encoding="iso-8859-1"?>
<!-- Generator: Adobe Illustrator 18.1.1, SVG Export Plug-In . SVG Version: 6.00 Build 0)  -->
<svg version="1.1" id="Capa_1" xmlns="http://www.w3.org/2000/svg" xmlns:xlink="http://www.w3.org/1999/xlink" x="0px" y="0px"
	 viewBox="0 0 478.165 478.165" style="fill:white;" xml:space="preserve">
<g>
	<path id="Twitter__x28_alt_x29__2_" d="M423.993,220.812c26.737-2.271,44.948-14.445,52.2-31.021
		c-9.763,5.897-39.967,12.432-56.463,6.276c-0.877-3.905-1.773-7.631-2.71-10.938c-12.632-46.482-56.025-83.998-101.371-79.375
		c3.706-1.434,7.431-2.969,11.177-4.164c4.822-1.713,34.229-6.535,29.806-16.875c-4.064-9.065-39.947,6.834-46.601,8.946
		c8.886-3.307,23.709-8.966,25.223-19.226c-13.628,1.893-27.056,8.228-37.377,17.752c3.726-4.144,6.575-9.045,7.073-14.245
		c-36.36,23.151-57.539,70.051-74.753,115.437c-13.528-13.11-25.462-23.39-36.201-29.049
		c-30.124-16.258-66.126-33.053-122.749-54.072c-1.654,18.688,9.284,43.613,41.003,60.189c-6.933-0.936-19.386,1.136-29.427,3.487
		c4.025,21.478,17.373,39.03,53.515,47.617c-16.556,1.156-25.004,4.881-32.754,12.91c7.511,14.923,25.781,32.535,58.874,28.889
		c-36.679,15.859-14.943,45.226,14.923,40.704C126.494,356.69,46.163,352.905,0,308.715
		c120.418,164.21,382.034,97.107,421.144-60.946c29.108,0.339,46.342-10.121,57.021-21.537
		C461.349,229.08,437.003,226.171,423.993,220.812z"/>
</g>
</svg>
